<svg width="18" height="19" viewBox="0 0 18 19" fill="none" xmlns="http://www.w3.org/2000/svg">
<path d="M8.21517 8.845C7.52294 8.845 6.84625 8.63973 6.27068 8.25515C5.69511 7.87056 5.2465 7.32394 4.98159 6.68439C4.71669 6.04485 4.64738 5.34112 4.78242 4.66219C4.91747 3.98325 5.25082 3.35961 5.7403 2.87013C6.22978 2.38065 6.85342 2.0473 7.53236 1.91225C8.21129 1.77721 8.91502 1.84652 9.55456 2.11142C10.1941 2.37633 10.7407 2.82493 11.1253 3.40051C11.5099 3.97608 11.7152 4.65277 11.7152 5.345C11.7152 6.27326 11.3464 7.1635 10.69 7.81988C10.0337 8.47625 9.14343 8.845 8.21517 8.845ZM8.21517 2.885C7.72072 2.885 7.23737 3.03163 6.82625 3.30633C6.41512 3.58103 6.09469 3.97148 5.90547 4.42829C5.71626 4.88511 5.66675 5.38778 5.76321 5.87273C5.85967 6.35768 6.09777 6.80314 6.44741 7.15277C6.79704 7.5024 7.2425 7.7405 7.72745 7.83697C8.2124 7.93343 8.71507 7.88392 9.17188 7.6947C9.6287 7.50548 10.0191 7.18505 10.2938 6.77393C10.5686 6.36281 10.7152 5.87946 10.7152 5.385C10.7152 5.0567 10.6505 4.73161 10.5249 4.42829C10.3992 4.12498 10.2151 3.84938 9.98294 3.61724C9.75079 3.38509 9.47519 3.20094 9.17188 3.0753C8.86857 2.94967 8.54348 2.885 8.21517 2.885ZM11.0002 9.45C8.29438 8.84114 5.46369 9.1344 2.94017 10.285C2.59312 10.4508 2.3003 10.7117 2.09582 11.0375C1.89134 11.3633 1.78361 11.7404 1.78517 12.125V15.1C1.78517 15.1657 1.79811 15.2307 1.82323 15.2913C1.84836 15.352 1.88519 15.4071 1.93162 15.4536C1.97805 15.5 2.03317 15.5368 2.09383 15.5619C2.15449 15.5871 2.21951 15.6 2.28517 15.6C2.35083 15.6 2.41585 15.5871 2.47651 15.5619C2.53718 15.5368 2.5923 15.5 2.63873 15.4536C2.68516 15.4071 2.72199 15.352 2.74711 15.2913C2.77224 15.2307 2.78517 15.1657 2.78517 15.1V12.125C2.78082 11.9304 2.83338 11.7387 2.93641 11.5735C3.03944 11.4083 3.18846 11.2767 3.36517 11.195C4.88531 10.4931 6.54083 10.133 8.21517 10.14C9.15333 10.1388 10.0883 10.2496 11.0002 10.47V9.45ZM11.0702 14.205H14.1402V14.905H11.0702V14.205Z" fill="black"/>
<path d="M16.585 11.235H14V12.235H16.085V16.42H9V12.235H12.15V12.445C12.15 12.5776 12.2027 12.7048 12.2964 12.7986C12.3902 12.8923 12.5174 12.945 12.65 12.945C12.7826 12.945 12.9098 12.8923 13.0036 12.7986C13.0973 12.7048 13.15 12.5776 13.15 12.445V10.5C13.15 10.3674 13.0973 10.2402 13.0036 10.1464C12.9098 10.0527 12.7826 10 12.65 10C12.5174 10 12.3902 10.0527 12.2964 10.1464C12.2027 10.2402 12.15 10.3674 12.15 10.5V11.235H8.5C8.36739 11.235 8.24021 11.2877 8.14645 11.3814C8.05268 11.4752 8 11.6024 8 11.735V16.92C8 17.0526 8.05268 17.1798 8.14645 17.2736C8.24021 17.3673 8.36739 17.42 8.5 17.42H16.585C16.7176 17.42 16.8448 17.3673 16.9386 17.2736C17.0323 17.1798 17.085 17.0526 17.085 16.92V11.735C17.085 11.6024 17.0323 11.4752 16.9386 11.3814C16.8448 11.2877 16.7176 11.235 16.585 11.235Z" fill="black"/>
</svg>
