<svg width="24" height="24" viewBox="0 0 24 24" fill="none" xmlns="http://www.w3.org/2000/svg">
<path d="M11.9413 19C12.3497 19 12.695 18.8588 12.9773 18.5765C13.2597 18.2942 13.4005 17.9492 13.3997 17.5417C13.3989 17.1341 13.2581 16.7888 12.9773 16.5057C12.6966 16.2226 12.3512 16.0818 11.9413 16.0833C11.5315 16.0849 11.1865 16.2261 10.9065 16.5068C10.6265 16.7876 10.4853 17.1326 10.483 17.5417C10.4807 17.9508 10.6218 18.2961 10.9065 18.5777C11.1912 18.8592 11.5361 19 11.9413 19ZM10.8913 14.5083H13.0497C13.0497 13.8667 13.1228 13.3611 13.269 12.9917C13.4152 12.6222 13.8282 12.1167 14.508 11.475C15.0136 10.9694 15.4122 10.488 15.7038 10.0307C15.9955 9.57333 16.1413 9.02422 16.1413 8.38333C16.1413 7.29444 15.7427 6.45833 14.9455 5.875C14.1483 5.29167 13.2052 5 12.1163 5C11.008 5 10.1089 5.29167 9.41901 5.875C8.72912 6.45833 8.24768 7.15833 7.97468 7.975L9.89968 8.73333C9.9969 8.38333 10.2158 8.00417 10.5565 7.59583C10.8972 7.1875 11.4171 6.98333 12.1163 6.98333C12.7386 6.98333 13.2052 7.15367 13.5163 7.49433C13.8275 7.835 13.983 8.20911 13.983 8.61667C13.983 9.00556 13.8663 9.37033 13.633 9.711C13.3997 10.0517 13.108 10.3674 12.758 10.6583C11.9025 11.4167 11.3775 11.9903 11.183 12.3792C10.9886 12.7681 10.8913 13.4778 10.8913 14.5083ZM11.9997 23.6667C10.3858 23.6667 8.86912 23.3606 7.44968 22.7485C6.03023 22.1364 4.79551 21.3049 3.74551 20.2542C2.69551 19.2034 1.86445 17.9687 1.25234 16.55C0.640232 15.1313 0.333787 13.6147 0.333009 12C0.332232 10.3853 0.638676 8.86867 1.25234 7.45C1.86601 6.03133 2.69706 4.79661 3.74551 3.74583C4.79395 2.69506 6.02868 1.864 7.44968 1.25267C8.87068 0.641334 10.3873 0.33489 11.9997 0.333334C13.612 0.331779 15.1287 0.638223 16.5497 1.25267C17.9707 1.86711 19.2054 2.69817 20.2538 3.74583C21.3023 4.7935 22.1337 6.02822 22.7482 7.45C23.3626 8.87178 23.6687 10.3884 23.6663 12C23.664 13.6116 23.3576 15.1282 22.747 16.55C22.1365 17.9718 21.3054 19.2065 20.2538 20.2542C19.2023 21.3018 17.9676 22.1333 16.5497 22.7485C15.1318 23.3637 13.6151 23.6698 11.9997 23.6667ZM11.9997 21.3333C14.6052 21.3333 16.8122 20.4292 18.6205 18.6208C20.4288 16.8125 21.333 14.6056 21.333 12C21.333 9.39444 20.4288 7.1875 18.6205 5.37917C16.8122 3.57083 14.6052 2.66667 11.9997 2.66667C9.39412 2.66667 7.18718 3.57083 5.37884 5.37917C3.57051 7.1875 2.66634 9.39444 2.66634 12C2.66634 14.6056 3.57051 16.8125 5.37884 18.6208C7.18718 20.4292 9.39412 21.3333 11.9997 21.3333Z" fill="black"/>
</svg>
