<svg width="25" height="25" viewBox="0 0 25 25" fill="none" xmlns="http://www.w3.org/2000/svg">
<circle cx="12.5" cy="12.5" r="12.5" fill="#187609"/>
<path d="M19.3334 10.6665C19.3334 10.3129 19.1929 9.97374 18.9429 9.7237C18.6928 9.47365 18.3537 9.33317 18.0001 9.33317H13.7867L14.4267 6.2865C14.4401 6.21984 14.4467 6.1465 14.4467 6.07317C14.4467 5.79984 14.3334 5.5465 14.1534 5.3665L13.4467 4.6665L9.06008 9.05317C8.81341 9.29984 8.66675 9.63317 8.66675 9.99984V16.6665C8.66675 17.0201 8.80722 17.3593 9.05727 17.6093C9.30732 17.8594 9.64646 17.9998 10.0001 17.9998H16.0001C16.5534 17.9998 17.0267 17.6665 17.2267 17.1865L19.2401 12.4865C19.3001 12.3332 19.3334 12.1732 19.3334 11.9998V10.6665ZM4.66675 17.9998H7.33341V9.99984H4.66675V17.9998Z" fill="white"/>
</svg>
