<svg width="25" height="25" viewBox="0 0 25 25" fill="none" xmlns="http://www.w3.org/2000/svg">
<circle cx="12.5" cy="12.5" r="12.5" fill="#187609"/>
<path d="M8.7222 13.407C10.5217 13.407 11.9805 11.9461 11.9805 10.1439C11.9805 8.34178 10.5217 6.88086 8.7222 6.88086C6.92267 6.88086 5.46387 8.34178 5.46387 10.1439C5.46387 11.9461 6.92267 13.407 8.7222 13.407Z" fill="white" stroke="white" stroke-width="0.472222" stroke-miterlimit="10"/>
<path d="M8.34408 13.4233C7.59939 14.4476 6.59733 14.8612 5.18066 14.8612C5.85925 14.4088 6.53783 13.523 6.80133 12.8267L8.34408 13.4233Z" fill="white"/>
<path d="M16.2779 17.0049C18.0774 17.0049 19.5362 15.5461 19.5362 13.7466C19.5362 11.9471 18.0774 10.4883 16.2779 10.4883C14.4783 10.4883 13.0195 11.9471 13.0195 13.7466C13.0195 15.5461 14.4783 17.0049 16.2779 17.0049Z" fill="white" stroke="white" stroke-width="0.472222" stroke-miterlimit="10"/>
<path d="M16.656 17.0312C17.4007 18.0555 18.4028 18.4691 19.8194 18.4691C19.1408 18.0168 18.4623 17.1309 18.1988 16.4346L16.656 17.0312Z" fill="white"/>
<path d="M7.06963 10.6109C7.33044 10.6109 7.54186 10.3995 7.54186 10.1387C7.54186 9.87792 7.33044 9.6665 7.06963 9.6665C6.80883 9.6665 6.59741 9.87792 6.59741 10.1387C6.59741 10.3995 6.80883 10.6109 7.06963 10.6109Z" fill="black"/>
<path d="M8.72222 10.6109C8.98302 10.6109 9.19444 10.3995 9.19444 10.1387C9.19444 9.87792 8.98302 9.6665 8.72222 9.6665C8.46142 9.6665 8.25 9.87792 8.25 10.1387C8.25 10.3995 8.46142 10.6109 8.72222 10.6109Z" fill="black"/>
<path d="M10.3748 10.6109C10.6356 10.6109 10.847 10.3995 10.847 10.1387C10.847 9.87792 10.6356 9.6665 10.3748 9.6665C10.114 9.6665 9.90259 9.87792 9.90259 10.1387C9.90259 10.3995 10.114 10.6109 10.3748 10.6109Z" fill="black"/>
<path d="M6.80133 12.8267C6.53783 13.5232 5.85925 14.4088 5.18066 14.8612C6.59733 14.8612 7.59939 14.4476 8.34408 13.4233" stroke="white" stroke-width="0.472222" stroke-miterlimit="10" stroke-linecap="round" stroke-linejoin="round"/>
<path d="M9.25946 13.4012C10.8296 13.1447 12.0279 11.7817 12.0279 10.1391C12.0279 8.31344 10.5479 6.8335 8.7223 6.8335C6.89669 6.8335 5.41675 8.31344 5.41675 10.1391C5.41675 10.9262 5.69182 11.649 6.15105 12.2168" stroke="white" stroke-width="0.472222" stroke-miterlimit="10" stroke-linecap="round"/>
<path d="M17.9305 14.2189C18.1913 14.2189 18.4027 14.0074 18.4027 13.7466C18.4027 13.4858 18.1913 13.2744 17.9305 13.2744C17.6697 13.2744 17.4583 13.4858 17.4583 13.7466C17.4583 14.0074 17.6697 14.2189 17.9305 14.2189Z" fill="black"/>
<path d="M16.2779 14.2189C16.5387 14.2189 16.7501 14.0074 16.7501 13.7466C16.7501 13.4858 16.5387 13.2744 16.2779 13.2744C16.0171 13.2744 15.8057 13.4858 15.8057 13.7466C15.8057 14.0074 16.0171 14.2189 16.2779 14.2189Z" fill="black"/>
<path d="M14.6248 14.2189C14.8856 14.2189 15.097 14.0074 15.097 13.7466C15.097 13.4858 14.8856 13.2744 14.6248 13.2744C14.364 13.2744 14.1526 13.4858 14.1526 13.7466C14.1526 14.0074 14.364 14.2189 14.6248 14.2189Z" fill="black"/>
<path d="M18.1988 16.4341C18.4623 17.1306 19.1408 18.0163 19.8194 18.4687C18.4028 18.4687 17.4007 18.055 16.656 17.0307" stroke="white" stroke-width="0.472222" stroke-miterlimit="10" stroke-linecap="round" stroke-linejoin="round"/>
<path d="M15.7408 17.0086C14.1707 16.7522 12.9724 15.3891 12.9724 13.7465C12.9724 11.9209 14.4524 10.4409 16.278 10.4409C18.1036 10.4409 19.5835 11.9209 19.5835 13.7465C19.5835 14.5337 19.3085 15.2564 18.8492 15.8243" stroke="white" stroke-width="0.472222" stroke-miterlimit="10" stroke-linecap="round"/>
</svg>
