<svg width="123" height="29" viewBox="0 0 123 29" fill="none" xmlns="http://www.w3.org/2000/svg">
<path d="M11.3878 1.85096C12.4936 1.9984 13.4274 2.07211 14.1891 2.07211C14.6068 2.07211 14.9877 2.05983 15.3317 2.03526C15.6757 2.01068 16.1058 1.97382 16.6218 1.92468C17.0641 1.87553 17.617 1.82639 18.2804 1.77724C18.9439 1.7281 19.7179 1.64209 20.6026 1.51923C20.2831 1.76496 20.0374 2.04754 19.8654 2.36699C19.6934 2.68643 19.5582 2.99359 19.4599 3.28846C19.3616 3.63248 19.2879 3.98878 19.2388 4.35737C19.2142 4.57852 19.2019 5.03312 19.2019 5.72115C19.2265 6.40919 19.2388 7.24466 19.2388 8.22756C19.2634 9.21047 19.2634 10.304 19.2388 11.508C19.2388 12.7121 19.2142 13.9407 19.1651 15.1939C19.1159 16.4225 19.0422 17.6512 18.9439 18.8798C18.8456 20.0839 18.6982 21.2019 18.5016 22.234C18.3296 23.2415 18.0962 24.1261 17.8013 24.8878C17.531 25.625 17.1993 26.141 16.8061 26.4359C15.9952 27.0502 15.1106 27.554 14.1522 27.9471C13.1939 28.3157 12.2479 28.5614 11.3141 28.6843C10.3803 28.8072 9.49573 28.8072 8.66026 28.6843C7.84936 28.586 7.16132 28.3403 6.59615 27.9471C6.22756 27.6768 5.88355 27.2959 5.5641 26.8045C5.24466 26.313 4.94979 25.7724 4.67949 25.1827C4.43376 24.5684 4.20032 23.9418 3.97917 23.3029C3.78259 22.6394 3.61058 22.0374 3.46314 21.4968C3.29113 20.9316 3.15598 20.4402 3.05769 20.0224C2.93483 19.5801 2.84882 19.2853 2.79968 19.1378C2.70139 18.9167 2.54167 18.6955 2.32051 18.4744C2.09936 18.2532 1.86592 18.0566 1.62019 17.8846C1.37447 17.7126 1.1656 17.5897 0.99359 17.516C0.797008 17.4177 0.686432 17.3932 0.661859 17.4423C0.661859 17.4915 0.85844 17.5037 1.2516 17.4792C1.62019 17.43 2.07479 17.3809 2.61538 17.3317C3.15598 17.2826 3.72115 17.2457 4.3109 17.2212C4.90064 17.172 5.39209 17.1597 5.78526 17.1843C6.1047 17.1843 6.52244 17.1966 7.03846 17.2212C7.48077 17.2457 8.04594 17.2703 8.73397 17.2949C9.42201 17.2949 10.2698 17.3194 11.2772 17.3686C10.6384 17.5652 10.1223 17.7863 9.72917 18.0321C9.36058 18.2532 9.07799 18.4621 8.88141 18.6587C8.63568 18.9044 8.46368 19.1501 8.36538 19.3958C8.29167 19.617 8.23024 20.0716 8.18109 20.7596C8.15652 21.4231 8.20566 22.1111 8.32853 22.8237C8.45139 23.5363 8.68483 24.1875 9.02885 24.7772C9.37286 25.367 9.91346 25.6987 10.6506 25.7724C11.437 25.8462 12.0759 25.711 12.5673 25.367C13.0833 24.9984 13.4888 24.5069 13.7837 23.8926C14.0785 23.2783 14.2997 22.5903 14.4471 21.8285C14.5946 21.0668 14.7174 20.3173 14.8157 19.5801C14.8894 19.0887 14.914 18.4006 14.8894 17.516C14.8649 16.6314 14.8034 15.6731 14.7051 14.641C14.6068 13.609 14.484 12.5401 14.3365 11.4343C14.2137 10.3285 14.0908 9.30876 13.9679 8.375C13.8451 7.44124 13.7222 6.64263 13.5994 5.97917C13.5011 5.3157 13.4396 4.89797 13.4151 4.72596C13.3168 4.40652 13.1816 4.07479 13.0096 3.73077C12.8622 3.46047 12.6533 3.15331 12.383 2.80929C12.1373 2.46528 11.8056 2.14583 11.3878 1.85096ZM34.9776 0.708332C36.3045 0.757477 37.6437 1.0032 38.9952 1.44551C40.3713 1.86325 41.6368 2.55128 42.7917 3.50961C43.9466 4.44338 44.9295 5.65972 45.7404 7.15865C46.5513 8.63301 47.055 10.4391 47.2516 12.5769C47.4236 14.3216 47.2025 16.054 46.5881 17.774C45.9984 19.4696 45.1752 21.0299 44.1186 22.4551C43.062 23.8803 41.8456 25.0967 40.4696 26.1042C39.0935 27.0871 37.7174 27.7382 36.3413 28.0577C35.5059 28.2543 34.5844 28.2788 33.5769 28.1314C32.594 27.9594 31.5865 27.6522 30.5545 27.2099C29.547 26.7431 28.5518 26.1533 27.5689 25.4407C26.6106 24.7281 25.7382 23.9172 24.9519 23.008C24.1656 22.0743 23.5021 21.0668 22.9615 19.9856C22.4455 18.9044 22.1261 17.774 22.0032 16.5946C21.8803 15.6116 21.8681 14.5304 21.9663 13.351C22.0892 12.1469 22.3226 10.9551 22.6667 9.77564C23.0353 8.57158 23.539 7.41667 24.1779 6.3109C24.8413 5.18055 25.6768 4.19765 26.6843 3.36218C27.6918 2.50214 28.8713 1.83867 30.2228 1.37179C31.5988 0.880341 33.1838 0.659187 34.9776 0.708332ZM28.3798 15.6362C28.0358 18.2655 28.2815 20.3787 29.117 21.976C29.977 23.5732 31.2671 24.5438 32.9872 24.8878C33.8227 25.0598 34.6213 24.8878 35.383 24.3718C36.1693 23.8312 36.8819 23.0572 37.5208 22.0497C38.1597 21.0422 38.7126 19.8627 39.1795 18.5112C39.6464 17.1597 39.9904 15.7468 40.2115 14.2724C40.4327 12.7981 40.445 11.4712 40.2484 10.2917C40.0764 9.08761 39.7692 8.06784 39.3269 7.23237C38.8846 6.37233 38.344 5.70887 37.7051 5.24199C37.0908 4.77511 36.4519 4.51709 35.7885 4.46795C34.6335 4.39423 33.6261 4.70139 32.766 5.38942C31.906 6.05288 31.1811 6.92521 30.5913 8.00641C30.0016 9.08761 29.5224 10.304 29.1538 11.6554C28.8098 13.0069 28.5518 14.3339 28.3798 15.6362ZM46.7724 2.14583C47.5588 2.34241 48.3082 2.48985 49.0208 2.58814C49.7334 2.68643 50.36 2.76015 50.9006 2.80929C51.5395 2.88301 52.1293 2.90758 52.6699 2.88301C53.3579 2.88301 54.2179 2.82158 55.25 2.69872C56.3066 2.57585 57.3878 2.46528 58.4936 2.36699C59.5994 2.24412 60.656 2.1704 61.6635 2.14583C62.6955 2.09669 63.531 2.15812 64.1699 2.33013C64.8088 2.47756 65.4599 2.711 66.1234 3.03045C66.8114 3.32532 67.438 3.7062 68.0032 4.17308C68.5684 4.61538 69.0353 5.1437 69.4038 5.75801C69.7724 6.34776 69.9813 7.0235 70.0305 7.78526C70.0059 8.74359 69.7847 9.64049 69.367 10.476C69.023 11.1886 68.4455 11.9257 67.6346 12.6875C66.8237 13.4247 65.6565 13.9898 64.133 14.383C64.8948 14.4813 65.5459 14.6533 66.0865 14.899C66.6517 15.1202 67.1309 15.3905 67.524 15.7099C67.9418 16.0048 68.2735 16.3365 68.5192 16.7051C68.7895 17.0737 68.9984 17.4423 69.1458 17.8109C69.5144 18.6709 69.6864 19.6293 69.6619 20.6859C69.5144 22.062 69.2318 23.1554 68.8141 23.9663C68.4209 24.7772 67.9663 25.4038 67.4503 25.8462C66.9343 26.2885 66.406 26.5956 65.8654 26.7676C65.3248 26.9396 64.8333 27.0748 64.391 27.1731C63.9487 27.2714 63.4081 27.3205 62.7692 27.3205C62.1303 27.3205 61.4423 27.3082 60.7051 27.2837C59.9925 27.2345 59.2553 27.1976 58.4936 27.1731C57.7318 27.1239 57.0069 27.1239 56.3189 27.1731C55.7537 27.2222 55.0657 27.2714 54.2548 27.3205C53.5668 27.3697 52.7067 27.4311 51.6747 27.5048C50.6426 27.554 49.4386 27.6154 48.0625 27.6891C48.3328 27.4925 48.554 27.2714 48.726 27.0256C48.9225 26.7553 49.0823 26.5219 49.2051 26.3253C49.328 26.0796 49.4386 25.8462 49.5369 25.625C49.6106 25.4284 49.672 24.8878 49.7212 24.0032C49.7703 23.1186 49.8072 22.062 49.8317 20.8333C49.8563 19.5801 49.8686 18.2409 49.8686 16.8157C49.8932 15.3659 49.8809 13.9776 49.8317 12.6506C49.8072 11.2991 49.758 10.1074 49.6843 9.07532C49.6352 8.0187 49.5614 7.25694 49.4631 6.79006C49.3157 6.27404 49.1191 5.74573 48.8734 5.20513C48.6768 4.73825 48.3942 4.23451 48.0256 3.69391C47.6816 3.15331 47.2639 2.63729 46.7724 2.14583ZM54.5497 5.90545C54.5497 6.00374 54.562 6.33547 54.5865 6.90064C54.6111 7.39209 54.6357 8.15385 54.6603 9.1859C54.7094 10.1934 54.7708 11.6309 54.8446 13.4984C55.4589 13.7687 56.0609 13.9161 56.6506 13.9407C57.2404 13.9407 57.7687 13.9161 58.2356 13.867C58.7762 13.7933 59.2922 13.6704 59.7837 13.4984C60.4471 13.2281 60.9631 12.7858 61.3317 12.1715C61.7249 11.5572 61.9829 10.9183 62.1058 10.2548C62.2532 9.56677 62.2901 8.92788 62.2163 8.33814C62.1426 7.72382 61.9829 7.28152 61.7372 7.01122C61.2703 6.59348 60.6928 6.24946 60.0048 5.97917C59.4151 5.75801 58.6656 5.61058 57.7564 5.53686C56.8718 5.43857 55.8029 5.56143 54.5497 5.90545ZM54.3654 23.3766C55.2746 23.8435 56.0732 24.1506 56.7612 24.2981C57.4493 24.4455 58.0267 24.5192 58.4936 24.5192C59.0342 24.5192 59.5011 24.4455 59.8942 24.2981C60.3611 24.0769 60.8157 23.7821 61.258 23.4135C61.7249 23.0203 62.0689 22.5657 62.2901 22.0497C62.5358 21.5091 62.6341 20.9193 62.5849 20.2804C62.5358 19.617 62.2532 18.8921 61.7372 18.1058C61.2703 17.5406 60.7051 17.0983 60.0417 16.7788C59.4519 16.5085 58.7025 16.3365 57.7933 16.2628C56.9087 16.1891 55.8152 16.398 54.5128 16.8894L54.3654 23.3766Z" fill="black"/>
<path d="M70.9888 2.07211C71.7751 2.09669 72.4631 2.10897 73.0529 2.10897C73.6426 2.0844 74.1218 2.07211 74.4904 2.07211H75.5593C75.8296 2.04754 76.1613 2.03526 76.5545 2.03526C76.8985 2.03526 77.3162 2.03526 77.8077 2.03526C78.2991 2.03526 78.8643 2.04754 79.5032 2.07211C79.6998 2.76015 79.9209 3.4359 80.1667 4.09936C80.437 4.73825 80.6704 5.3157 80.867 5.83173C81.1127 6.44605 81.3584 7.0235 81.6042 7.5641C81.8499 8.1047 82.1448 8.75588 82.4888 9.51763C82.7837 10.1565 83.14 10.9428 83.5577 11.8766C83.9754 12.7858 84.4669 13.8301 85.0321 15.0096C85.3024 14.2479 85.5481 13.5475 85.7692 12.9087C86.015 12.2698 86.2238 11.7169 86.3958 11.25C86.5924 10.7094 86.7521 10.2179 86.875 9.77564C86.9979 9.33333 87.133 8.79273 87.2805 8.15385C87.4033 7.61325 87.5385 6.96207 87.6859 6.20032C87.8579 5.43857 88.0299 4.55395 88.2019 3.54647C88.9145 3.54647 89.5534 3.54647 90.1186 3.54647C90.6838 3.54647 91.1752 3.53419 91.593 3.50961C92.0598 3.50961 92.4776 3.49733 92.8462 3.47276C93.2393 3.47276 93.7676 3.44818 94.4311 3.39904C94.9963 3.34989 95.7457 3.31303 96.6795 3.28846C97.6378 3.23932 98.8173 3.17788 100.218 3.10417C99.7019 3.47276 99.2842 3.84135 98.9647 4.20993C98.6699 4.55395 98.4364 4.86111 98.2644 5.13141C98.0678 5.45085 97.945 5.75801 97.8958 6.05288C97.8467 6.29861 97.7975 6.86378 97.7484 7.7484C97.7238 8.63301 97.687 9.68964 97.6378 10.9183C97.6133 12.1223 97.5887 13.4124 97.5641 14.7885C97.5641 16.1645 97.5764 17.4669 97.601 18.6955C97.6255 19.9241 97.6624 20.9931 97.7115 21.9022C97.7853 22.7869 97.8836 23.352 98.0064 23.5978C98.1784 23.8926 98.4119 24.2366 98.7067 24.6298C98.977 24.9738 99.3211 25.367 99.7388 25.8093C100.181 26.2516 100.759 26.7431 101.471 27.2837C100.341 27.3328 99.3948 27.3697 98.633 27.3942C97.8958 27.4188 97.2815 27.4434 96.7901 27.4679C96.2249 27.4925 95.7703 27.5048 95.4263 27.5048C95.0577 27.5048 94.554 27.5171 93.9151 27.5417C93.3499 27.5662 92.6004 27.6031 91.6667 27.6522C90.7329 27.6768 89.5289 27.726 88.0545 27.7997C88.3985 27.4065 88.718 27.0134 89.0128 26.6202C89.3077 26.227 89.5534 25.8707 89.75 25.5513C89.9957 25.1827 90.2046 24.8264 90.3766 24.4824C90.5486 24.0155 90.6838 23.1677 90.7821 21.9391C90.8803 20.8825 90.9541 19.3713 91.0032 17.4054C91.0524 15.4151 91.0524 12.7489 91.0032 9.40705C90.5363 10.1688 90.1186 10.9306 89.75 11.6923C89.406 12.4295 89.0988 13.1052 88.8285 13.7196C88.5337 14.4322 88.2634 15.1202 88.0176 15.7837C87.7719 16.4717 87.5139 17.2334 87.2436 18.0689C86.9979 18.7815 86.703 19.6293 86.359 20.6122C86.0395 21.5951 85.6709 22.6763 85.2532 23.8558L83.8526 23.9295C83.656 22.9466 83.4594 22.062 83.2628 21.2756C83.0662 20.4647 82.8697 19.7767 82.6731 19.2115C82.4519 18.5481 82.2308 17.9583 82.0096 17.4423C81.7639 16.9263 81.4936 16.3488 81.1987 15.7099C80.9284 15.1693 80.5967 14.5304 80.2035 13.7933C79.8349 13.0561 79.4049 12.2329 78.9135 11.3237C78.6677 13.8301 78.5203 15.8697 78.4712 17.4423C78.422 18.9904 78.422 20.1944 78.4712 21.0545C78.5203 22.0865 78.594 22.836 78.6923 23.3029C78.8397 23.7206 79.0732 24.1875 79.3926 24.7035C79.6629 25.1458 80.0315 25.6741 80.4984 26.2885C80.9899 26.8782 81.6165 27.5417 82.3782 28.2788C81.8376 28.2788 81.2724 28.2788 80.6827 28.2788C80.093 28.2788 79.5524 28.2911 79.0609 28.3157C78.4712 28.3403 77.8937 28.3526 77.3285 28.3526C76.7388 28.3771 76.0508 28.414 75.2644 28.4631C74.5764 28.5123 73.7532 28.5614 72.7949 28.6106C71.8365 28.6597 70.7308 28.7457 69.4776 28.8686C70.0182 28.5246 70.4605 28.1928 70.8045 27.8734C71.1485 27.5294 71.4188 27.2222 71.6154 26.9519C71.8611 26.6325 72.0454 26.313 72.1683 25.9936C72.242 25.797 72.3034 25.367 72.3526 24.7035C72.4263 24.0401 72.4877 23.2292 72.5369 22.2708C72.6106 21.3125 72.6597 20.2436 72.6843 19.0641C72.7334 17.8846 72.7703 16.6928 72.7949 15.4888C72.844 14.2601 72.8809 13.0684 72.9055 11.9135C72.93 10.734 72.9423 9.67735 72.9423 8.74359C72.9669 7.78526 72.9792 6.98664 72.9792 6.34776C72.9792 5.70887 72.9792 5.30342 72.9792 5.13141C72.9055 4.76282 72.7949 4.39423 72.6474 4.02564C72.5246 3.7062 72.328 3.37446 72.0577 3.03045C71.7874 2.68643 71.4311 2.36699 70.9888 2.07211ZM99.4071 3.32532C101.127 3.37446 102.552 3.41132 103.683 3.4359C104.838 3.4359 105.771 3.4359 106.484 3.4359H108.438H119.421C119.471 3.92735 119.507 4.40652 119.532 4.8734C119.581 5.3157 119.606 5.70887 119.606 6.05288C119.606 6.47062 119.593 6.85149 119.569 7.19551C119.544 7.53953 119.507 7.90812 119.458 8.30128C119.409 8.6453 119.36 9.01389 119.311 9.40705C119.262 9.80021 119.176 10.2057 119.053 10.6234C118.709 9.29647 118.242 8.28899 117.652 7.60096C117.087 6.91293 116.51 6.40919 115.92 6.08974C115.232 5.72115 114.507 5.52457 113.745 5.5C112.738 5.54914 111.951 5.63515 111.386 5.75801C110.821 5.88088 110.379 6.05288 110.059 6.27404C109.74 6.49519 109.494 6.7532 109.322 7.04808C109.175 7.31838 109.015 7.62553 108.843 7.96955C108.696 8.26442 108.56 8.71902 108.438 9.33333C108.315 9.84936 108.192 10.5497 108.069 11.4343C107.971 12.3189 107.86 13.4615 107.737 14.8622C108.401 14.6656 108.929 14.4813 109.322 14.3093C109.74 14.1373 110.072 13.9898 110.317 13.867C110.588 13.7196 110.784 13.5844 110.907 13.4615C111.005 13.3141 111.153 13.0438 111.349 12.6506C111.497 12.3066 111.693 11.8397 111.939 11.25C112.209 10.6603 112.529 9.84936 112.897 8.81731C112.947 9.94765 112.971 10.8937 112.971 11.6554C112.971 12.3926 112.983 12.9947 113.008 13.4615C113.008 14.0021 113.02 14.4322 113.045 14.7516V16.1522C113.045 16.6683 113.045 17.3686 113.045 18.2532C113.069 19.1132 113.106 20.2067 113.155 21.5337C112.861 20.6245 112.59 19.9119 112.345 19.3958C112.123 18.8552 111.927 18.4498 111.755 18.1795C111.558 17.86 111.386 17.6389 111.239 17.516C111.067 17.4669 110.833 17.4177 110.538 17.3686C110.268 17.344 109.924 17.3317 109.506 17.3317C109.113 17.3317 108.61 17.3932 107.995 17.516C107.921 18.8675 107.909 19.961 107.958 20.7965C108.032 21.6074 108.13 22.234 108.253 22.6763C108.376 23.1923 108.524 23.5609 108.696 23.7821C108.917 24.0032 109.359 24.1875 110.022 24.3349C110.686 24.4578 111.435 24.5069 112.271 24.4824C113.131 24.4332 114.003 24.2858 114.888 24.0401C115.772 23.7943 116.559 23.3889 117.247 22.8237C117.763 22.3568 118.316 21.7671 118.905 21.0545C119.397 20.4402 119.938 19.6661 120.527 18.7324C121.142 17.7986 121.744 16.6683 122.333 15.3413C122.235 16.4471 122.161 17.3686 122.112 18.1058C122.088 18.8184 122.051 19.3958 122.002 19.8381C121.952 20.3542 121.916 20.7473 121.891 21.0176C121.891 21.3125 121.854 21.7302 121.78 22.2708C121.731 22.7377 121.645 23.3766 121.522 24.1875C121.424 24.9738 121.289 25.9813 121.117 27.2099C119.962 27.2345 118.869 27.2591 117.837 27.2837C116.804 27.2837 115.895 27.2959 115.109 27.3205C114.175 27.3451 113.315 27.3697 112.529 27.3942C111.718 27.3942 110.821 27.4311 109.838 27.5048C108.978 27.554 107.958 27.6277 106.779 27.726C105.624 27.8243 104.346 27.9594 102.946 28.1314C103.068 26.4605 103.154 24.8878 103.204 23.4135C103.277 21.9145 103.326 20.5999 103.351 19.4696C103.376 18.1426 103.376 16.914 103.351 15.7837C103.474 12.9578 103.425 10.6725 103.204 8.92788C102.982 7.18323 102.724 6.06517 102.429 5.57372C102.282 5.40171 102.073 5.19284 101.803 4.94711C101.582 4.75053 101.275 4.51709 100.881 4.24679C100.488 3.97649 99.9968 3.66934 99.4071 3.32532Z" fill="#0DCAF0" fill-opacity="0.941176"/>
</svg>
