<svg width="25" height="25" viewBox="0 0 25 25" fill="none" xmlns="http://www.w3.org/2000/svg">
<circle cx="12.5" cy="12.5" r="12.5" fill="#FF0000"/>
<path d="M16.6667 14H19.3334V6H16.6667M14.0001 6H8.00008C7.44675 6 6.97341 6.33333 6.77341 6.81333L4.76008 11.5133C4.70008 11.6667 4.66675 11.8267 4.66675 12V13.3333C4.66675 13.687 4.80722 14.0261 5.05727 14.2761C5.30732 14.5262 5.64646 14.6667 6.00008 14.6667H10.2067L9.57341 17.7133C9.56008 17.78 9.55341 17.8467 9.55341 17.92C9.55341 18.2 9.66675 18.4467 9.84675 18.6267L10.5534 19.3333L14.9401 14.94C15.1867 14.7 15.3334 14.3667 15.3334 14V7.33333C15.3334 6.97971 15.1929 6.64057 14.9429 6.39052C14.6928 6.14048 14.3537 6 14.0001 6Z" fill="white"/>
</svg>
