<svg width="18" height="19" viewBox="0 0 18 19" fill="none" xmlns="http://www.w3.org/2000/svg">
<g clip-path="url(#clip0_145_772)">
<path d="M12.9997 11.075C12.7676 10.6632 12.4535 10.3034 12.0768 10.0179C11.7001 9.73237 11.2688 9.52717 10.8097 9.415C10.3788 9.28574 9.94158 9.17893 9.49967 9.095V4.56C10.3782 4.65424 11.2164 4.97847 11.9297 5.5C11.9789 5.54366 12.0363 5.5772 12.0985 5.5987C12.1607 5.62019 12.2265 5.62922 12.2922 5.62528C12.3579 5.62133 12.4222 5.60448 12.4814 5.5757C12.5406 5.54691 12.5935 5.50675 12.6372 5.4575C12.6808 5.40825 12.7144 5.35089 12.7359 5.28868C12.7574 5.22648 12.7664 5.16065 12.7625 5.09495C12.7585 5.02925 12.7417 4.96497 12.7129 4.90579C12.6841 4.8466 12.6439 4.79366 12.5947 4.75C11.6998 4.0608 10.6252 3.64417 9.49967 3.55V2C9.49967 1.86739 9.44699 1.74021 9.35323 1.64645C9.25946 1.55268 9.13228 1.5 8.99967 1.5C8.86706 1.5 8.73989 1.55268 8.64612 1.64645C8.55235 1.74021 8.49967 1.86739 8.49967 2V3.5C6.29967 3.55 5.08467 4.645 4.71467 5.59C4.46784 6.19852 4.44439 6.87478 4.64848 7.49894C4.85256 8.12309 5.27101 8.65486 5.82967 9C6.64287 9.49572 7.55372 9.80957 8.49967 9.92V14.5C7.19433 14.4343 5.94386 13.9544 4.92967 13.13C4.88441 13.0761 4.82829 13.0324 4.76499 13.0017C4.70168 12.9711 4.63261 12.9541 4.56229 12.9519C4.49197 12.9497 4.42198 12.9624 4.3569 12.9892C4.29182 13.0159 4.23312 13.0561 4.18463 13.107C4.13613 13.158 4.09894 13.2186 4.07549 13.285C4.05203 13.3513 4.04283 13.4218 4.0485 13.4919C4.05417 13.5621 4.07457 13.6302 4.10837 13.6919C4.14218 13.7536 4.18862 13.8075 4.24467 13.85C5.44064 14.8569 6.93755 15.4374 8.49967 15.5V17C8.49967 17.1326 8.55235 17.2598 8.64612 17.3536C8.73989 17.4473 8.86706 17.5 8.99967 17.5C9.13228 17.5 9.25946 17.4473 9.35323 17.3536C9.44699 17.2598 9.49967 17.1326 9.49967 17V15.5C10.9097 15.405 12.5347 14.955 13.1497 13.12C13.2609 12.7861 13.305 12.4335 13.2792 12.0825C13.2535 11.7315 13.1585 11.3891 12.9997 11.075ZM6.39467 8.16C6.02957 7.94267 5.75397 7.60223 5.61741 7.19988C5.48085 6.79753 5.49229 6.35967 5.64967 5.965C5.70467 5.815 6.26467 4.56 8.49967 4.5V8.9C7.7538 8.80402 7.03653 8.55187 6.39467 8.16ZM12.1997 12.78C11.8397 13.85 11.0397 14.365 9.49967 14.48V10.115C9.81967 10.185 10.1497 10.265 10.4997 10.37C10.8303 10.4451 11.1422 10.5867 11.4164 10.7861C11.6906 10.9855 11.9214 11.2386 12.0947 11.53C12.2908 11.9172 12.3284 12.3655 12.1997 12.78Z" fill="black"/>
</g>
<defs>
<clipPath id="clip0_145_772">
<rect width="18" height="18" fill="white" transform="translate(0 0.5)"/>
</clipPath>
</defs>
</svg>
